<?xml version="1.0" encoding="UTF-8"?>
<svg id="Layer_1" data-name="Layer 1" xmlns="http://www.w3.org/2000/svg" viewBox="0 0 389.76 389.76">
  <defs>
    <style>
      .cls-1 {
        fill: none;
        stroke: #000;
        stroke-miterlimit: 10;
        stroke-width: 6px;
      }
    </style>
  </defs>
  <line class="cls-1" x1="196.47" y1="299.08" x2="196.47" y2="352.7"/>
  <line class="cls-1" x1="196.47" y1="40.23" x2="196.47" y2="93.67"/>
  <line class="cls-1" x1="94.4" y1="196.46" x2="40.23" y2="196.46"/>
  <line class="cls-1" x1="352.7" y1="196.46" x2="297.5" y2="196.46"/>
  <line class="cls-1" x1="125.34" y1="268.39" x2="85.99" y2="306.94"/>
  <line class="cls-1" x1="306.94" y1="85.99" x2="268.46" y2="125.17"/>
  <line class="cls-1" x1="306.94" y1="306.94" x2="268.3" y2="268.92"/>
  <line class="cls-1" x1="124.26" y1="124.28" x2="85.99" y2="85.99"/>
  <line class="cls-1" x1="102.45" y1="235.74" x2="51.93" y2="255.79"/>
  <line class="cls-1" x1="341" y1="137.14" x2="290.62" y2="157.74"/>
  <line class="cls-1" x1="157.78" y1="102.27" x2="137.14" y2="51.93"/>
  <line class="cls-1" x1="255.79" y1="341" x2="235.59" y2="290.5"/>
  <line class="cls-1" x1="100.96" y1="156.45" x2="52.32" y2="136.21"/>
  <line class="cls-1" x1="340.62" y1="256.71" x2="291.06" y2="235.63"/>
  <line class="cls-1" x1="136.22" y1="340.61" x2="157.57" y2="290.86"/>
  <line class="cls-1" x1="238.39" y1="103" x2="256.72" y2="52.31"/>
</svg>