<?xml version="1.0" encoding="UTF-8"?>
<svg id="Layer_1" data-name="Layer 1" xmlns="http://www.w3.org/2000/svg" viewBox="0 0 389.76 389.76">
  <defs>
    <style>
      .cls-1 {
        fill: none;
        stroke: #fff;
        stroke-miterlimit: 10;
        stroke-width: 6px;
      }
    </style>
  </defs>
  <circle class="cls-1" cx="188.15" cy="102.11" r="26.88"/>
  <path class="cls-1" d="m266.92,252.69c12.82-15.94,20.5-36.2,20.5-58.25,0-44.3-30.97-81.36-72.44-90.73"/>
  <path class="cls-1" d="m161.77,107.3c-35.28,13.22-60.4,47.24-60.4,87.14,0,51.38,41.65,93.03,93.03,93.03,10,0,19.62-1.58,28.65-4.5"/>
  <circle class="cls-1" cx="246.96" cy="270.69" r="26.88"/>
  <path class="cls-1" d="m64.65,280.13c27.83,42.05,75.54,69.79,129.74,69.79,85.87,0,155.48-69.61,155.48-155.48S280.27,38.96,194.4,38.96,38.91,108.57,38.91,194.44c0,12.63,1.52,24.9,4.36,36.65"/>
  <circle class="cls-1" cx="51.49" cy="256.69" r="26.88"/>
</svg>